<?xml version="1.0" standalone="no"?>
<!DOCTYPE svg PUBLIC "-//W3C//DTD SVG 20010904//EN"
 "http://www.w3.org/TR/2001/REC-SVG-20010904/DTD/svg10.dtd">
<svg version="1.0" xmlns="http://www.w3.org/2000/svg"
 width="612.000000pt" height="408.000000pt" viewBox="0 0 612.000000 408.000000"
 preserveAspectRatio="xMidYMid meet">
<metadata>
Created by potrace 1.16, written by Peter Selinger 2001-2019
</metadata>
<g transform="translate(0.000000,408.000000) scale(0.100000,-0.100000)"
fill="#000000" stroke="none">
<path d="M1081 2642 c-47 -53 -73 -150 -46 -172 10 -8 40 -11 89 -8 67 3 78 7
106 33 16 16 30 34 30 39 0 6 9 22 20 36 11 14 20 41 20 63 l0 37 -97 0 c-94
0 -99 -1 -122 -28z"/>
<path d="M873 2584 c-17 -12 -16 -16 20 -51 52 -52 77 -84 77 -97 0 -6 3 -20
6 -32 5 -19 -1 -22 -58 -34 -86 -18 -153 -54 -219 -120 -65 -64 -97 -118 -129
-213 -31 -95 -25 -231 15 -329 15 -38 31 -68 36 -68 5 0 9 -6 9 -13 0 -17 108
-137 123 -137 6 0 20 -8 31 -19 70 -63 270 -78 376 -27 78 37 89 45 147 104
96 98 143 214 143 353 0 78 -28 195 -55 229 -7 8 -20 29 -28 45 -43 82 -149
157 -269 191 -61 17 -68 21 -68 44 -1 56 -76 171 -120 183 -10 3 -27 -1 -37
-9z m263 -291 c179 -71 279 -267 245 -478 -47 -289 -346 -434 -583 -283 -98
64 -159 163 -179 296 -22 147 18 276 118 378 107 108 262 142 399 87z"/>
<path d="M990 2220 c-12 -7 -15 -40 -17 -162 -1 -84 2 -163 7 -175 5 -12 35
-39 66 -60 31 -21 69 -46 83 -55 32 -22 50 -23 58 -2 7 19 -29 55 -104 104
l-53 33 0 152 c0 158 -7 185 -40 165z"/>
<path d="M1863 2294 c-35 -8 -110 -81 -134 -131 -20 -41 -23 -63 -23 -173 0
-123 1 -126 35 -190 29 -55 42 -69 89 -94 91 -49 216 -37 308 31 l32 24 0 125
0 125 -111 -3 -112 -3 -1 -48 -1 -47 48 0 47 0 0 -50 c0 -45 -3 -52 -26 -60
-55 -21 -110 -9 -146 34 -66 78 -47 318 27 346 63 24 117 3 141 -56 14 -33 15
-34 75 -34 l62 0 -6 36 c-8 50 -49 108 -97 140 -33 22 -54 28 -113 30 -40 1
-82 0 -94 -2z"/>
<path d="M2828 2290 c-15 -4 -43 -18 -62 -30 -67 -41 -114 -185 -102 -309 12
-110 27 -151 77 -202 80 -82 188 -97 307 -43 79 36 82 43 82 181 l0 123 -110
0 -110 0 0 -50 0 -50 45 0 45 0 0 -50 c0 -45 -3 -52 -26 -60 -122 -47 -197 56
-179 246 6 66 11 78 41 111 32 33 37 35 81 30 48 -5 79 -31 85 -72 2 -16 13
-21 48 -25 74 -9 82 -4 74 44 -3 22 -11 50 -16 61 -16 33 -81 85 -118 95 -41
12 -124 12 -162 0z"/>
<path d="M3472 2243 l3 -57 80 -1 80 0 3 -247 2 -248 60 0 60 0 2 248 3 247
55 2 c30 1 68 2 83 2 27 1 28 2 25 54 l-3 52 -228 3 -228 2 3 -57z"/>
<path d="M2340 2134 c-49 -21 -70 -42 -96 -99 -27 -57 -32 -151 -12 -217 13
-44 75 -113 116 -129 93 -37 213 7 248 90 22 51 29 160 15 216 -31 123 -158
188 -271 139z m136 -119 c24 -36 30 -132 11 -178 -31 -74 -101 -72 -131 5 -21
50 -20 111 0 151 21 40 31 47 71 47 24 0 37 -7 49 -25z"/>
<path d="M3292 2129 c-91 -45 -132 -167 -101 -297 38 -157 222 -209 331 -94
20 20 41 54 48 76 28 86 7 217 -44 275 -52 59 -158 77 -234 40z m142 -120 c21
-25 26 -41 26 -85 0 -130 -79 -187 -137 -98 -25 39 -24 150 2 187 29 38 75 37
109 -4z"/>
<path d="M4300 2143 c-8 -3 -23 -12 -32 -21 -16 -14 -18 -13 -18 1 0 14 -11
17 -60 17 l-60 0 0 -225 0 -225 60 0 60 0 0 156 c0 148 1 158 22 175 28 25 63
24 82 -3 13 -18 16 -53 16 -175 l0 -153 60 0 60 0 0 156 c0 148 1 158 22 175
25 23 61 25 78 5 8 -10 12 -68 14 -173 l3 -158 56 -3 57 -3 0 181 c0 207 -7
237 -63 263 -51 25 -107 22 -151 -8 -39 -27 -56 -31 -56 -15 0 27 -103 50
-150 33z"/>
<path d="M4878 2130 c-73 -40 -108 -111 -108 -223 0 -85 24 -142 78 -187 64
-53 141 -57 229 -12 62 32 70 54 36 97 -30 38 -47 44 -57 20 -9 -24 -71 -47
-98 -36 -26 10 -52 37 -61 64 -6 16 4 17 118 17 l125 0 6 26 c16 65 -26 190
-77 227 -41 29 -144 33 -191 7z"/>
<path d="M3950 1915 l0 -225 60 0 60 0 0 225 0 225 -60 0 -60 0 0 -225z"/>
</g>
</svg>
